#!OML:ASF E:/inclinewalkrobotboard/Project1/Captureday1/Session1/subject1.ASF
:FULLY-SPECIFIED
:DEGREES
101
root 0 0 0 85.63554778778692 -33.19718123376561 -56.11929817408928
lowerback -11.44982703261774 9.709186212291913 14.180374907131043
upperback -20.781582143467872 12.308106411875446 3.122416323996686
thorax -15.212088949966692 4.233692765658785 -3.7846164004754472
lowerneck -8.958026805458815 11.966287850964983 6.244653712105419
upperneck 10.163745625986845 14.259984315081892 9.150508664984224
head 4.531021122436344 7.718861399841035 2.7881797915144535
rclavicle 9.407337370919663E-15 7.846627132289111E-15
rhumerus 33.99818487261131 -50.06390153293806 -14.807394633461492
rradius 19.94536998942349
rwrist 40.36587350916741
rhand 0.5758491824375125 2.332376598051919
rfingers 7.125020000000067
rthumb 26.143011843935767 -25.854323975855454
lclavicle 9.003975164001406E-16 2.02284817120365E-15
lhumerus -7.1333398554264456 12.972476679536406 -4.233812733525937
lradius 20.92649313484567
lwrist -38.87339376634215
lhand 0.5260544545334966 34.37282139336969
lfingers 7.125020000000039
lthumb 26.064232052785496 62.498855964385626
rfemur 206.41406701028666 -182.73409646812564 -174.32544880385746
rtibia 56.76984323038451
rfoot 58.36222659549958 -30.997992354335686
rtoes 15.756001305471377
lfemur -54.29892645524159 25.54802521643605 21.296207352005112
ltibia 22.976454976682625
lfoot -66.1181066921943 8.901698953440992
ltoes 60.36458551541498
102
root 0 0 0 85.62913665041819 -33.190823719236896 -56.1130232982907
lowerback -11.446827266010352 9.709705698090534 14.18729396067434
upperback -20.78746773760422 12.308649140738137 3.1251449406674627
thorax -15.22020663423831 4.232852363808864 -3.784087421836971
lowerneck -8.95144117320049 11.969147691876875 6.243240305988634
upperneck 10.158762655916963 14.264424000911772 9.15739368493264
head 4.527415335219111 7.721039276040688 2.790448501562161
rclavicle 9.375914585420595E-15 7.843964568135526E-15
rhumerus 33.88822995207205 -50.09162780619796 -14.69836339369931
rradius 19.919363846551235
rwrist 40.362749297917475
rhand 0.571011652760081 2.3285288012507204
rfingers 7.125020000000066
rthumb 26.137998952473616 -25.860006337773328
lclavicle 8.487169493077204E-16 2.0297512080709133E-15
lhumerus -7.142391440268661 12.979760568356372 -4.2329931329575174
lradius 20.910627198720448
lwrist -38.90944216406804
lhand 0.5206278513216398 34.361419087492926
lfingers 7.125020000000039
lthumb 26.05932322921402 62.48884077183165
rfemur 206.39499730091634 -182.71813910510127 -174.3069629158483
rtibia 56.75528861487965
rfoot 58.34786974723042 -31.018477321385753
rtoes 15.766199104099003
lfemur -54.30840763354129 25.554191006362785 21.30005347529655
ltibia 22.98708379064383
lfoot -66.11007140699094 8.911670190654494
ltoes 60.367794669686376
103
root 0 0 0 85.62507143740439 -33.18828698209907 -56.109835419426325
lowerback -11.445153341116317 9.709976707137944 14.190730810279671
upperback -20.79001297306163 12.309009993388955 3.1265486566516856
thorax -15.223956681898153 4.232517201953142 -3.7837717180789348
lowerneck -8.948401165389404 11.970424368538536 6.242571856898811
upperneck 10.157453841200217 14.266372682488464 9.160635012332708
head 4.526167011411571 7.7220040157855 2.791497608774093
rclavicle 9.404567954766543E-15 7.860418216426444E-15
rhumerus 33.84385571188217 -50.10410077992434 -14.638106745988395
rradius 19.910389797958807
rwrist 40.37153848179517
rhand 0.5701245854053538 2.32581045568236
rfingers 7.125020000000066
rthumb 26.137135163928562 -25.863343678350397
lclavicle 8.601477627421116E-16 2.047008754716755E-15
lhumerus -7.174521716708703 12.984564624932421 -4.221763672740352
lradius 20.905568004679317
lwrist -38.922637305661624
lhand 0.5150026044327023 34.35548403974599
lfingers 7.125020000000039
lthumb 26.054033833745965 62.48412783167118
rfemur 206.3864763333537 -182.70953285056362 -174.30081504504727
rtibia 56.748640822482386
rfoot 58.33845375350893 -31.026725541010443
rtoes 15.771651437452233
lfemur -54.30781955281916 25.55778238090693 21.300889427196722
ltibia 22.990393996300785
lfoot -66.10728380681907 8.913622473044871
ltoes 60.37032905452668
104
root 0 0 0 85.62121523587055 -33.1864139836565 -56.10694085959556
lowerback -11.443497340956116 9.710217142801438 14.194028467364395
upperback -20.792222050507476 12.30933997016383 3.1278468645324544
thorax -15.227307691159767 4.23220464700149 -3.7835543396361846
lowerneck -8.945644964078085 11.97144666791922 6.241860817559863
upperneck 10.156716071335056 14.267944965570003 9.16357733955677
head 4.525201608039977 7.7227814305567035 2.792454529593962
rclavicle 9.417194979196939E-15 7.874968179480313E-15
rhumerus 33.80570402682969 -50.111292963544074 -14.587243175553787
rradius 19.908729027848544
rwrist 40.378066401925565
rhand 0.5690284480598273 2.3248614972704242
rfingers 7.125020000000066
rthumb 26.136110977849413 -25.86487566846031
lclavicle 8.652652995611169E-16 2.0636124109126426E-15
lhumerus -7.20728490794924 12.987500248421288 -4.206364919292909
lradius 20.903854753154206
lwrist -38.93178290838809
lhand 0.5092163695209233 34.351473671942685
lfingers 7.125020000000039
lthumb 26.048565506936864 62.48125729987345
rfemur 206.3799070447521 -182.70458372585045 -174.29721007153873
rtibia 56.743952862557876
rfoot 58.327997301558014 -31.03210166596844
rtoes 15.774006427753113
lfemur -54.30801338941309 25.56017668470234 21.301438076500588
ltibia 22.992358609023203
lfoot -66.10333275027659 8.913189231623866
ltoes 60.37166062632907
105
root 0 0 0 85.6361021376952 -33.19719016900403 -56.11967980748507
lowerback -11.450059865834596 9.709164160682947 14.179893623981512
upperback -20.781329883413772 12.308072373934476 3.1222266447009606
thorax -15.211687477633731 4.233740878664142 -3.7846396726720775
lowerneck -8.958375520422436 11.966181396217664 6.244767193005845
upperneck 10.163734426000701 14.25982103554052 9.150115949697689
head 4.531105895220437 7.718780142486777 2.7880499154412126
rclavicle 9.404158543401364E-15 7.84535593909525E-15
rhumerus 34.01269635983164 -50.06317874938023 -14.82054310275273
rradius 19.944437293513825
rwrist 40.3654447280358
rhand 0.577003960720047 2.331506937405309
rfingers 7.125020000000067
rthumb 26.144111510626654 -25.85490354453572
lclavicle 8.984619394657734E-16 2.020605878390776E-15
lhumerus -7.1222814469480955 12.97250158874716 -4.237651223152206
lradius 20.92661300674038
lwrist -38.871870416876845
lhand 0.5276716547734941 34.37382210430424
lfingers 7.125020000000039
lthumb 26.065771674813554 62.499603668431156
rfemur 206.41675502716674 -182.7358910438977 -174.32674391504426
rtibia 56.77099000587333
rfoot 58.36482447083654 -30.995518827228395
rtoes 15.756360208588335
lfemur -54.299427470565135 25.547660078978097 21.296070714489247
ltibia 22.976424409960725
lfoot -66.11920520705608 8.902100434643561
ltoes 60.36438492674735
